<?xml version="1.0" encoding="UTF-8"?>
<svg width="67" height="54" version="1.1" viewBox="0 0 67.000003 53.999999" xmlns="http://www.w3.org/2000/svg">
 <path d="m13.994 39.728-13.725-39.46 15.631 39.269z" fill="#555" fill-rule="evenodd" stroke="#555" stroke-linejoin="round" stroke-width=".53917"/>
 <path d="m13.422 42.778c0.94064 4.2461 4.0839 5.6603 8.5781 5.3375 0.67375-2.7323 0.75074-5.4646-2.0968-8.1969z" fill="#479f00" fill-rule="evenodd"/>
 <path d="m17.235 38.284a6.209 6.209 0 0 0 -6.2089 6.2089 6.209 6.209 0 0 0 0.59816 2.6432l10.91-5.8656a6.209 6.209 0 0 0 -5.299 -2.9865z" color="#000000" color-rendering="auto" fill="#555" fill-rule="evenodd" image-rendering="auto" shape-rendering="auto" solid-color="#000000" stroke="#555" stroke-linecap="round" stroke-linejoin="round" stroke-width=".70247" style="isolation:auto;mix-blend-mode:normal"/>
 <path d="m34.227 5.4577c-1.4867 1.3896-3.9337 3.0532-4.4103 4.3155-0.44449 1.1773 0.05176 4.4162 0.01078 6.5859-5.4457-0.28277-8.9697-0.69007-11.843-0.6824-1.4334 0.0043-2.7514 0.11478-4.1596 0.40017-0.97967 0.16698-1.448 1.3005-0.87195 2.1103 1.4621 3.4248 14.488 3.3464 25.556 3.3087 0.69618 0.0011 1.4589-0.0022 2.1757 0 11.068 0.03763 24.094 0.11608 25.556-3.3087 0.57605-0.8098 0.10783-1.9434-0.87195-2.1103-1.4082-0.28539-2.7262-0.39586-4.1596-0.40017-2.8731-0.0075-6.3972 0.39962-11.843 0.6824-0.04098-2.1697 0.45495-5.4086 0.01078-6.5859-0.47662-1.2623-2.9235-2.9259-4.4102-4.3155s-3.9821-3.1192-5.3696-3.1192-3.8829 1.7296-5.3696 3.1192z" fill="#555" fill-rule="evenodd"/>
 <path d="m34.522 8.718h10.042" fill="none" stroke="#fff" stroke-width="2.1567"/>
 <path d="m34.522 14.649h10.042" fill="none" stroke="#fff" stroke-width="2.1567"/>
 <path d="m43.977 8.8815-8.922 5.6196" fill="none" stroke="#fff" stroke-width="1.8332"/>
 <path d="m27.32 19.999a19.132 19.132 0 0 0 -7.1061 14.869 19.132 19.132 0 0 0 19.132 19.132 19.132 19.132 0 0 0 19.134 -19.132 19.132 19.132 0 0 0 -7.1165 -14.869h-24.043z" color="#000000" color-rendering="auto" fill="#f8ad32" fill-rule="evenodd" image-rendering="auto" shape-rendering="auto" solid-color="#000000" style="isolation:auto;mix-blend-mode:normal"/>
 <path d="m33.312 44.875h12.071" fill="none" stroke="#fff" stroke-linecap="round" stroke-linejoin="round" stroke-width="6.4701"/>
 <ellipse cx="31.294" cy="30.078" rx="8.5782" ry="5.0992" color="#000000" color-rendering="auto" fill="#555" fill-rule="evenodd" image-rendering="auto" shape-rendering="auto" solid-color="#000000" style="isolation:auto;mix-blend-mode:normal"/>
 <ellipse cx="47.401" cy="30.078" rx="8.5782" ry="5.0992" color="#000000" color-rendering="auto" fill="#555" fill-rule="evenodd" image-rendering="auto" shape-rendering="auto" solid-color="#000000" style="isolation:auto;mix-blend-mode:normal"/>
 <path d="m22.502 25.809a19.132 19.132 0 0 0 -2.2261 7.7253h38.136a19.132 19.132 0 0 0 -2.2283 -7.7253h-33.681z" color="#000000" color-rendering="auto" fill="#555" fill-rule="evenodd" image-rendering="auto" shape-rendering="auto" solid-color="#000000" style="isolation:auto;mix-blend-mode:normal"/>
 <circle cx="46.726" cy="29.932" r="1.666" color="#000000" color-rendering="auto" fill="#fff" fill-rule="evenodd" image-rendering="auto" shape-rendering="auto" solid-color="#000000" stroke="#f8ab32" stroke-linecap="round" stroke-linejoin="round" stroke-width="1.0783" style="isolation:auto;mix-blend-mode:normal"/>
 <circle cx="32.16" cy="29.932" r="1.666" color="#000000" color-rendering="auto" fill="#fff" fill-rule="evenodd" image-rendering="auto" shape-rendering="auto" solid-color="#000000" stroke="#f8ab32" stroke-linecap="round" stroke-linejoin="round" stroke-width="1.0783" style="isolation:auto;mix-blend-mode:normal"/>
</svg>
